<mxfile host="app.diagrams.net" modified="2024-04-01T01:27:07.930Z" agent="Mozilla/5.0 (Windows NT 10.0; Win64; x64; rv:124.0) Gecko/20100101 Firefox/124.0" etag="JYiY1c2W4yXXuTa_4etk" version="24.2.1" type="github">
  <diagram id="C5RBs43oDa-KdzZeNtuy" name="Page-1">
    <mxGraphModel dx="2442" dy="888" grid="1" gridSize="10" guides="1" tooltips="1" connect="1" arrows="1" fold="1" page="1" pageScale="1" pageWidth="827" pageHeight="1169" math="0" shadow="0">
      <root>
        <mxCell id="WIyWlLk6GJQsqaUBKTNV-0" />
        <mxCell id="WIyWlLk6GJQsqaUBKTNV-1" parent="WIyWlLk6GJQsqaUBKTNV-0" />
        <mxCell id="vcfaOclVS4mGj2MfW7bT-15" style="edgeStyle=orthogonalEdgeStyle;rounded=0;orthogonalLoop=1;jettySize=auto;html=1;exitX=0.5;exitY=1;exitDx=0;exitDy=0;" parent="WIyWlLk6GJQsqaUBKTNV-1" source="vcfaOclVS4mGj2MfW7bT-0" target="vcfaOclVS4mGj2MfW7bT-1" edge="1">
          <mxGeometry relative="1" as="geometry" />
        </mxCell>
        <mxCell id="vcfaOclVS4mGj2MfW7bT-0" value="&lt;div&gt;Enter Site&lt;/div&gt;" style="ellipse;whiteSpace=wrap;html=1;" parent="WIyWlLk6GJQsqaUBKTNV-1" vertex="1">
          <mxGeometry x="250" y="70" width="120" height="80" as="geometry" />
        </mxCell>
        <mxCell id="vcfaOclVS4mGj2MfW7bT-1" value="&lt;div&gt;Home&lt;/div&gt;" style="rounded=1;whiteSpace=wrap;html=1;" parent="WIyWlLk6GJQsqaUBKTNV-1" vertex="1">
          <mxGeometry x="250" y="190" width="120" height="60" as="geometry" />
        </mxCell>
        <mxCell id="vcfaOclVS4mGj2MfW7bT-2" value="About" style="rounded=1;whiteSpace=wrap;html=1;" parent="WIyWlLk6GJQsqaUBKTNV-1" vertex="1">
          <mxGeometry x="400" y="190" width="120" height="60" as="geometry" />
        </mxCell>
        <mxCell id="vcfaOclVS4mGj2MfW7bT-7" style="edgeStyle=orthogonalEdgeStyle;rounded=0;orthogonalLoop=1;jettySize=auto;html=1;exitX=0.5;exitY=1;exitDx=0;exitDy=0;entryX=0.5;entryY=0;entryDx=0;entryDy=0;" parent="WIyWlLk6GJQsqaUBKTNV-1" source="vcfaOclVS4mGj2MfW7bT-3" target="vcfaOclVS4mGj2MfW7bT-5" edge="1">
          <mxGeometry relative="1" as="geometry" />
        </mxCell>
        <mxCell id="vcfaOclVS4mGj2MfW7bT-22" style="edgeStyle=orthogonalEdgeStyle;rounded=0;orthogonalLoop=1;jettySize=auto;html=1;exitX=0.5;exitY=0;exitDx=0;exitDy=0;" parent="WIyWlLk6GJQsqaUBKTNV-1" source="vcfaOclVS4mGj2MfW7bT-3" target="vcfaOclVS4mGj2MfW7bT-20" edge="1">
          <mxGeometry relative="1" as="geometry">
            <Array as="points">
              <mxPoint x="600" y="160" />
              <mxPoint x="540" y="160" />
            </Array>
          </mxGeometry>
        </mxCell>
        <mxCell id="vcfaOclVS4mGj2MfW7bT-23" style="edgeStyle=orthogonalEdgeStyle;rounded=0;orthogonalLoop=1;jettySize=auto;html=1;entryX=0.5;entryY=1;entryDx=0;entryDy=0;" parent="WIyWlLk6GJQsqaUBKTNV-1" source="vcfaOclVS4mGj2MfW7bT-3" target="vcfaOclVS4mGj2MfW7bT-21" edge="1">
          <mxGeometry relative="1" as="geometry">
            <Array as="points">
              <mxPoint x="600" y="160" />
              <mxPoint x="680" y="160" />
              <mxPoint x="680" y="120" />
            </Array>
          </mxGeometry>
        </mxCell>
        <mxCell id="vcfaOclVS4mGj2MfW7bT-25" style="edgeStyle=orthogonalEdgeStyle;rounded=0;orthogonalLoop=1;jettySize=auto;html=1;exitX=0.5;exitY=0;exitDx=0;exitDy=0;" parent="WIyWlLk6GJQsqaUBKTNV-1" source="vcfaOclVS4mGj2MfW7bT-3" edge="1">
          <mxGeometry relative="1" as="geometry">
            <mxPoint x="810" y="130" as="targetPoint" />
          </mxGeometry>
        </mxCell>
        <mxCell id="vcfaOclVS4mGj2MfW7bT-3" value="Login" style="rounded=1;whiteSpace=wrap;html=1;" parent="WIyWlLk6GJQsqaUBKTNV-1" vertex="1">
          <mxGeometry x="540" y="190" width="120" height="60" as="geometry" />
        </mxCell>
        <mxCell id="vcfaOclVS4mGj2MfW7bT-14" style="edgeStyle=orthogonalEdgeStyle;rounded=0;orthogonalLoop=1;jettySize=auto;html=1;exitX=1;exitY=0.5;exitDx=0;exitDy=0;" parent="WIyWlLk6GJQsqaUBKTNV-1" edge="1">
          <mxGeometry relative="1" as="geometry">
            <mxPoint x="660" y="220" as="targetPoint" />
            <mxPoint x="665" y="440" as="sourcePoint" />
            <Array as="points">
              <mxPoint x="665" y="441" />
              <mxPoint x="730" y="441" />
              <mxPoint x="730" y="220" />
            </Array>
          </mxGeometry>
        </mxCell>
        <mxCell id="vcfaOclVS4mGj2MfW7bT-38" style="edgeStyle=orthogonalEdgeStyle;rounded=0;orthogonalLoop=1;jettySize=auto;html=1;exitX=0.5;exitY=1;exitDx=0;exitDy=0;entryX=0.567;entryY=-0.017;entryDx=0;entryDy=0;entryPerimeter=0;" parent="WIyWlLk6GJQsqaUBKTNV-1" source="vcfaOclVS4mGj2MfW7bT-4" target="vcfaOclVS4mGj2MfW7bT-26" edge="1">
          <mxGeometry relative="1" as="geometry">
            <mxPoint x="530" y="490" as="targetPoint" />
          </mxGeometry>
        </mxCell>
        <mxCell id="vcfaOclVS4mGj2MfW7bT-39" style="edgeStyle=orthogonalEdgeStyle;rounded=0;orthogonalLoop=1;jettySize=auto;html=1;exitX=0.5;exitY=1;exitDx=0;exitDy=0;" parent="WIyWlLk6GJQsqaUBKTNV-1" source="vcfaOclVS4mGj2MfW7bT-4" target="vcfaOclVS4mGj2MfW7bT-27" edge="1">
          <mxGeometry relative="1" as="geometry" />
        </mxCell>
        <mxCell id="vcfaOclVS4mGj2MfW7bT-46" style="edgeStyle=orthogonalEdgeStyle;rounded=0;orthogonalLoop=1;jettySize=auto;html=1;exitX=0.5;exitY=1;exitDx=0;exitDy=0;entryX=0.5;entryY=0;entryDx=0;entryDy=0;" parent="WIyWlLk6GJQsqaUBKTNV-1" source="vcfaOclVS4mGj2MfW7bT-4" target="vcfaOclVS4mGj2MfW7bT-28" edge="1">
          <mxGeometry relative="1" as="geometry" />
        </mxCell>
        <mxCell id="vcfaOclVS4mGj2MfW7bT-47" style="edgeStyle=orthogonalEdgeStyle;rounded=0;orthogonalLoop=1;jettySize=auto;html=1;exitX=0.5;exitY=1;exitDx=0;exitDy=0;entryX=0.75;entryY=0;entryDx=0;entryDy=0;" parent="WIyWlLk6GJQsqaUBKTNV-1" source="vcfaOclVS4mGj2MfW7bT-4" target="vcfaOclVS4mGj2MfW7bT-29" edge="1">
          <mxGeometry relative="1" as="geometry">
            <Array as="points">
              <mxPoint x="605" y="670" />
              <mxPoint x="515" y="670" />
              <mxPoint x="515" y="585" />
            </Array>
          </mxGeometry>
        </mxCell>
        <mxCell id="vcfaOclVS4mGj2MfW7bT-49" style="edgeStyle=orthogonalEdgeStyle;rounded=0;orthogonalLoop=1;jettySize=auto;html=1;exitX=1;exitY=0.75;exitDx=0;exitDy=0;entryX=0;entryY=0.5;entryDx=0;entryDy=0;" parent="WIyWlLk6GJQsqaUBKTNV-1" source="vcfaOclVS4mGj2MfW7bT-4" target="vcfaOclVS4mGj2MfW7bT-50" edge="1">
          <mxGeometry relative="1" as="geometry">
            <mxPoint x="890" y="445" as="targetPoint" />
          </mxGeometry>
        </mxCell>
        <mxCell id="vcfaOclVS4mGj2MfW7bT-62" style="edgeStyle=orthogonalEdgeStyle;rounded=0;orthogonalLoop=1;jettySize=auto;html=1;exitX=0.5;exitY=1;exitDx=0;exitDy=0;entryX=0.5;entryY=1;entryDx=0;entryDy=0;" parent="WIyWlLk6GJQsqaUBKTNV-1" source="vcfaOclVS4mGj2MfW7bT-4" target="vcfaOclVS4mGj2MfW7bT-52" edge="1">
          <mxGeometry relative="1" as="geometry">
            <Array as="points">
              <mxPoint x="605" y="670" />
              <mxPoint x="810" y="670" />
            </Array>
          </mxGeometry>
        </mxCell>
        <mxCell id="vcfaOclVS4mGj2MfW7bT-4" value="&lt;div&gt;Register&lt;/div&gt;" style="rounded=1;whiteSpace=wrap;html=1;" parent="WIyWlLk6GJQsqaUBKTNV-1" vertex="1">
          <mxGeometry x="545" y="400" width="120" height="60" as="geometry" />
        </mxCell>
        <mxCell id="vcfaOclVS4mGj2MfW7bT-8" style="edgeStyle=orthogonalEdgeStyle;rounded=0;orthogonalLoop=1;jettySize=auto;html=1;exitX=0.5;exitY=1;exitDx=0;exitDy=0;" parent="WIyWlLk6GJQsqaUBKTNV-1" source="vcfaOclVS4mGj2MfW7bT-5" target="vcfaOclVS4mGj2MfW7bT-4" edge="1">
          <mxGeometry relative="1" as="geometry" />
        </mxCell>
        <mxCell id="vcfaOclVS4mGj2MfW7bT-5" value="Have Account" style="rhombus;whiteSpace=wrap;html=1;" parent="WIyWlLk6GJQsqaUBKTNV-1" vertex="1">
          <mxGeometry x="560" y="270" width="90" height="90" as="geometry" />
        </mxCell>
        <mxCell id="vcfaOclVS4mGj2MfW7bT-9" value="True" style="text;html=1;align=center;verticalAlign=middle;resizable=0;points=[];autosize=1;strokeColor=none;fillColor=none;" parent="WIyWlLk6GJQsqaUBKTNV-1" vertex="1">
          <mxGeometry x="645" y="278" width="50" height="30" as="geometry" />
        </mxCell>
        <mxCell id="vcfaOclVS4mGj2MfW7bT-10" value="&lt;div&gt;False&lt;/div&gt;&lt;div&gt;&lt;br&gt;&lt;/div&gt;" style="text;html=1;align=center;verticalAlign=middle;resizable=0;points=[];autosize=1;strokeColor=none;fillColor=none;" parent="WIyWlLk6GJQsqaUBKTNV-1" vertex="1">
          <mxGeometry x="650" y="360" width="50" height="40" as="geometry" />
        </mxCell>
        <mxCell id="vcfaOclVS4mGj2MfW7bT-16" value="" style="endArrow=none;dashed=1;html=1;dashPattern=1 3;strokeWidth=2;rounded=0;entryX=0;entryY=0.5;entryDx=0;entryDy=0;exitX=0.983;exitY=0.617;exitDx=0;exitDy=0;exitPerimeter=0;" parent="WIyWlLk6GJQsqaUBKTNV-1" source="vcfaOclVS4mGj2MfW7bT-1" target="vcfaOclVS4mGj2MfW7bT-2" edge="1">
          <mxGeometry width="50" height="50" relative="1" as="geometry">
            <mxPoint x="364" y="230" as="sourcePoint" />
            <mxPoint x="414" y="180" as="targetPoint" />
          </mxGeometry>
        </mxCell>
        <mxCell id="vcfaOclVS4mGj2MfW7bT-19" value="" style="endArrow=none;dashed=1;html=1;dashPattern=1 3;strokeWidth=2;rounded=0;exitX=1;exitY=0.65;exitDx=0;exitDy=0;exitPerimeter=0;entryX=0;entryY=0.5;entryDx=0;entryDy=0;" parent="WIyWlLk6GJQsqaUBKTNV-1" source="vcfaOclVS4mGj2MfW7bT-2" target="vcfaOclVS4mGj2MfW7bT-3" edge="1">
          <mxGeometry width="50" height="50" relative="1" as="geometry">
            <mxPoint x="500" y="260" as="sourcePoint" />
            <mxPoint x="550" y="210" as="targetPoint" />
          </mxGeometry>
        </mxCell>
        <mxCell id="vcfaOclVS4mGj2MfW7bT-20" value="Username" style="shape=parallelogram;perimeter=parallelogramPerimeter;whiteSpace=wrap;html=1;fixedSize=1;" parent="WIyWlLk6GJQsqaUBKTNV-1" vertex="1">
          <mxGeometry x="480" y="60" width="120" height="60" as="geometry" />
        </mxCell>
        <mxCell id="vcfaOclVS4mGj2MfW7bT-21" value="&lt;div&gt;Password&lt;/div&gt;" style="shape=parallelogram;perimeter=parallelogramPerimeter;whiteSpace=wrap;html=1;fixedSize=1;" parent="WIyWlLk6GJQsqaUBKTNV-1" vertex="1">
          <mxGeometry x="615" y="60" width="120" height="60" as="geometry" />
        </mxCell>
        <mxCell id="vcfaOclVS4mGj2MfW7bT-24" value="&lt;div&gt;Account&lt;/div&gt;&lt;div&gt;Type&lt;br&gt;&lt;/div&gt;" style="shape=parallelogram;perimeter=parallelogramPerimeter;whiteSpace=wrap;html=1;fixedSize=1;" parent="WIyWlLk6GJQsqaUBKTNV-1" vertex="1">
          <mxGeometry x="750" y="60" width="120" height="60" as="geometry" />
        </mxCell>
        <mxCell id="vcfaOclVS4mGj2MfW7bT-26" value="ID" style="shape=parallelogram;perimeter=parallelogramPerimeter;whiteSpace=wrap;html=1;fixedSize=1;" parent="WIyWlLk6GJQsqaUBKTNV-1" vertex="1">
          <mxGeometry x="460" y="500" width="120" height="60" as="geometry" />
        </mxCell>
        <mxCell id="vcfaOclVS4mGj2MfW7bT-27" value="Username" style="shape=parallelogram;perimeter=parallelogramPerimeter;whiteSpace=wrap;html=1;fixedSize=1;" parent="WIyWlLk6GJQsqaUBKTNV-1" vertex="1">
          <mxGeometry x="665" y="500" width="120" height="60" as="geometry" />
        </mxCell>
        <mxCell id="vcfaOclVS4mGj2MfW7bT-28" value="First Name" style="shape=parallelogram;perimeter=parallelogramPerimeter;whiteSpace=wrap;html=1;fixedSize=1;" parent="WIyWlLk6GJQsqaUBKTNV-1" vertex="1">
          <mxGeometry x="350" y="500" width="120" height="60" as="geometry" />
        </mxCell>
        <mxCell id="vcfaOclVS4mGj2MfW7bT-29" value="&lt;div&gt;Last Name&lt;/div&gt;" style="shape=parallelogram;perimeter=parallelogramPerimeter;whiteSpace=wrap;html=1;fixedSize=1;" parent="WIyWlLk6GJQsqaUBKTNV-1" vertex="1">
          <mxGeometry x="425" y="580" width="120" height="60" as="geometry" />
        </mxCell>
        <mxCell id="vcfaOclVS4mGj2MfW7bT-30" value="&lt;div&gt;Password&lt;/div&gt;" style="shape=parallelogram;perimeter=parallelogramPerimeter;whiteSpace=wrap;html=1;fixedSize=1;" parent="WIyWlLk6GJQsqaUBKTNV-1" vertex="1">
          <mxGeometry x="780" y="500" width="120" height="60" as="geometry" />
        </mxCell>
        <mxCell id="vcfaOclVS4mGj2MfW7bT-31" value="Email" style="shape=parallelogram;perimeter=parallelogramPerimeter;whiteSpace=wrap;html=1;fixedSize=1;" parent="WIyWlLk6GJQsqaUBKTNV-1" vertex="1">
          <mxGeometry x="615" y="580" width="120" height="60" as="geometry" />
        </mxCell>
        <mxCell id="vcfaOclVS4mGj2MfW7bT-35" style="edgeStyle=orthogonalEdgeStyle;rounded=0;orthogonalLoop=1;jettySize=auto;html=1;" parent="WIyWlLk6GJQsqaUBKTNV-1" source="vcfaOclVS4mGj2MfW7bT-32" target="vcfaOclVS4mGj2MfW7bT-34" edge="1">
          <mxGeometry relative="1" as="geometry" />
        </mxCell>
        <mxCell id="vcfaOclVS4mGj2MfW7bT-32" value="" style="strokeWidth=2;html=1;shape=mxgraph.flowchart.database;whiteSpace=wrap;" parent="WIyWlLk6GJQsqaUBKTNV-1" vertex="1">
          <mxGeometry x="940" y="200" width="60" height="60" as="geometry" />
        </mxCell>
        <mxCell id="vcfaOclVS4mGj2MfW7bT-34" value="&lt;div&gt;Data&lt;/div&gt;&lt;div&gt;Match&lt;br&gt;&lt;/div&gt;" style="rhombus;whiteSpace=wrap;html=1;" parent="WIyWlLk6GJQsqaUBKTNV-1" vertex="1">
          <mxGeometry x="790" y="190" width="80" height="80" as="geometry" />
        </mxCell>
        <mxCell id="vcfaOclVS4mGj2MfW7bT-36" style="edgeStyle=orthogonalEdgeStyle;rounded=0;orthogonalLoop=1;jettySize=auto;html=1;exitX=1;exitY=0.5;exitDx=0;exitDy=0;entryX=0.088;entryY=0.388;entryDx=0;entryDy=0;entryPerimeter=0;" parent="WIyWlLk6GJQsqaUBKTNV-1" source="vcfaOclVS4mGj2MfW7bT-3" target="vcfaOclVS4mGj2MfW7bT-34" edge="1">
          <mxGeometry relative="1" as="geometry" />
        </mxCell>
        <mxCell id="vcfaOclVS4mGj2MfW7bT-40" style="edgeStyle=orthogonalEdgeStyle;rounded=0;orthogonalLoop=1;jettySize=auto;html=1;exitX=0.5;exitY=1;exitDx=0;exitDy=0;entryX=0.583;entryY=0.017;entryDx=0;entryDy=0;entryPerimeter=0;" parent="WIyWlLk6GJQsqaUBKTNV-1" source="vcfaOclVS4mGj2MfW7bT-4" target="vcfaOclVS4mGj2MfW7bT-30" edge="1">
          <mxGeometry relative="1" as="geometry" />
        </mxCell>
        <mxCell id="vcfaOclVS4mGj2MfW7bT-48" style="edgeStyle=orthogonalEdgeStyle;rounded=0;orthogonalLoop=1;jettySize=auto;html=1;exitX=0.5;exitY=1;exitDx=0;exitDy=0;entryX=0.317;entryY=0;entryDx=0;entryDy=0;entryPerimeter=0;" parent="WIyWlLk6GJQsqaUBKTNV-1" source="vcfaOclVS4mGj2MfW7bT-4" target="vcfaOclVS4mGj2MfW7bT-31" edge="1">
          <mxGeometry relative="1" as="geometry">
            <Array as="points">
              <mxPoint x="605" y="480" />
              <mxPoint x="653" y="480" />
            </Array>
          </mxGeometry>
        </mxCell>
        <mxCell id="vcfaOclVS4mGj2MfW7bT-50" value="Successful?" style="rhombus;whiteSpace=wrap;html=1;" parent="WIyWlLk6GJQsqaUBKTNV-1" vertex="1">
          <mxGeometry x="900" y="400" width="80" height="80" as="geometry" />
        </mxCell>
        <mxCell id="vcfaOclVS4mGj2MfW7bT-51" style="edgeStyle=orthogonalEdgeStyle;rounded=0;orthogonalLoop=1;jettySize=auto;html=1;exitX=0.5;exitY=0;exitDx=0;exitDy=0;entryX=0.5;entryY=1;entryDx=0;entryDy=0;entryPerimeter=0;" parent="WIyWlLk6GJQsqaUBKTNV-1" source="vcfaOclVS4mGj2MfW7bT-50" target="vcfaOclVS4mGj2MfW7bT-32" edge="1">
          <mxGeometry relative="1" as="geometry" />
        </mxCell>
        <mxCell id="vcfaOclVS4mGj2MfW7bT-52" value="Profile Picture" style="shape=parallelogram;perimeter=parallelogramPerimeter;whiteSpace=wrap;html=1;fixedSize=1;" parent="WIyWlLk6GJQsqaUBKTNV-1" vertex="1">
          <mxGeometry x="750" y="585" width="120" height="60" as="geometry" />
        </mxCell>
        <mxCell id="vcfaOclVS4mGj2MfW7bT-57" style="edgeStyle=orthogonalEdgeStyle;rounded=0;orthogonalLoop=1;jettySize=auto;html=1;exitX=0.5;exitY=1;exitDx=0;exitDy=0;" parent="WIyWlLk6GJQsqaUBKTNV-1" source="vcfaOclVS4mGj2MfW7bT-54" target="vcfaOclVS4mGj2MfW7bT-56" edge="1">
          <mxGeometry relative="1" as="geometry" />
        </mxCell>
        <mxCell id="vcfaOclVS4mGj2MfW7bT-54" value="Dashboard" style="rounded=1;whiteSpace=wrap;html=1;" parent="WIyWlLk6GJQsqaUBKTNV-1" vertex="1">
          <mxGeometry x="90" y="190" width="120" height="60" as="geometry" />
        </mxCell>
        <mxCell id="vcfaOclVS4mGj2MfW7bT-55" value="" style="endArrow=none;dashed=1;html=1;dashPattern=1 3;strokeWidth=2;rounded=0;entryX=0;entryY=0.5;entryDx=0;entryDy=0;exitX=1;exitY=0.5;exitDx=0;exitDy=0;" parent="WIyWlLk6GJQsqaUBKTNV-1" source="vcfaOclVS4mGj2MfW7bT-54" target="vcfaOclVS4mGj2MfW7bT-1" edge="1">
          <mxGeometry width="50" height="50" relative="1" as="geometry">
            <mxPoint x="220" y="230" as="sourcePoint" />
            <mxPoint x="260" y="200" as="targetPoint" />
          </mxGeometry>
        </mxCell>
        <mxCell id="vcfaOclVS4mGj2MfW7bT-58" style="edgeStyle=orthogonalEdgeStyle;rounded=0;orthogonalLoop=1;jettySize=auto;html=1;exitX=0;exitY=0.5;exitDx=0;exitDy=0;entryX=0.5;entryY=0;entryDx=0;entryDy=0;" parent="WIyWlLk6GJQsqaUBKTNV-1" source="vcfaOclVS4mGj2MfW7bT-56" target="vcfaOclVS4mGj2MfW7bT-71" edge="1">
          <mxGeometry relative="1" as="geometry">
            <mxPoint x="60" y="690" as="targetPoint" />
          </mxGeometry>
        </mxCell>
        <mxCell id="vcfaOclVS4mGj2MfW7bT-59" style="edgeStyle=orthogonalEdgeStyle;rounded=0;orthogonalLoop=1;jettySize=auto;html=1;exitX=1;exitY=0.5;exitDx=0;exitDy=0;" parent="WIyWlLk6GJQsqaUBKTNV-1" source="vcfaOclVS4mGj2MfW7bT-56" target="vcfaOclVS4mGj2MfW7bT-60" edge="1">
          <mxGeometry relative="1" as="geometry">
            <mxPoint x="250" y="440" as="targetPoint" />
          </mxGeometry>
        </mxCell>
        <mxCell id="vcfaOclVS4mGj2MfW7bT-56" value="Is Logged In" style="rhombus;whiteSpace=wrap;html=1;" parent="WIyWlLk6GJQsqaUBKTNV-1" vertex="1">
          <mxGeometry x="110" y="280" width="80" height="80" as="geometry" />
        </mxCell>
        <mxCell id="vcfaOclVS4mGj2MfW7bT-65" style="edgeStyle=orthogonalEdgeStyle;rounded=0;orthogonalLoop=1;jettySize=auto;html=1;exitX=1;exitY=0.5;exitDx=0;exitDy=0;entryX=0;entryY=1;entryDx=0;entryDy=0;" parent="WIyWlLk6GJQsqaUBKTNV-1" source="vcfaOclVS4mGj2MfW7bT-60" target="vcfaOclVS4mGj2MfW7bT-3" edge="1">
          <mxGeometry relative="1" as="geometry" />
        </mxCell>
        <mxCell id="vcfaOclVS4mGj2MfW7bT-60" value="Prompt to Log In" style="rounded=1;whiteSpace=wrap;html=1;" parent="WIyWlLk6GJQsqaUBKTNV-1" vertex="1">
          <mxGeometry x="260" y="300" width="120" height="60" as="geometry" />
        </mxCell>
        <mxCell id="vcfaOclVS4mGj2MfW7bT-63" value="Store" style="text;html=1;align=center;verticalAlign=middle;resizable=0;points=[];autosize=1;strokeColor=none;fillColor=none;" parent="WIyWlLk6GJQsqaUBKTNV-1" vertex="1">
          <mxGeometry x="950" y="348" width="50" height="30" as="geometry" />
        </mxCell>
        <mxCell id="vcfaOclVS4mGj2MfW7bT-64" value="Retrieve" style="text;html=1;align=center;verticalAlign=middle;resizable=0;points=[];autosize=1;strokeColor=none;fillColor=none;" parent="WIyWlLk6GJQsqaUBKTNV-1" vertex="1">
          <mxGeometry x="875" y="188" width="70" height="30" as="geometry" />
        </mxCell>
        <mxCell id="vcfaOclVS4mGj2MfW7bT-66" value="" style="endArrow=classic;html=1;rounded=0;entryX=0.5;entryY=0;entryDx=0;entryDy=0;" parent="WIyWlLk6GJQsqaUBKTNV-1" target="vcfaOclVS4mGj2MfW7bT-56" edge="1">
          <mxGeometry width="50" height="50" relative="1" as="geometry">
            <mxPoint x="540" y="280" as="sourcePoint" />
            <mxPoint x="440" y="270" as="targetPoint" />
          </mxGeometry>
        </mxCell>
        <mxCell id="vcfaOclVS4mGj2MfW7bT-67" value="False" style="text;html=1;align=center;verticalAlign=middle;resizable=0;points=[];autosize=1;strokeColor=none;fillColor=none;" parent="WIyWlLk6GJQsqaUBKTNV-1" vertex="1">
          <mxGeometry x="185" y="338" width="50" height="30" as="geometry" />
        </mxCell>
        <mxCell id="vcfaOclVS4mGj2MfW7bT-68" value="True" style="text;html=1;align=center;verticalAlign=middle;resizable=0;points=[];autosize=1;strokeColor=none;fillColor=none;" parent="WIyWlLk6GJQsqaUBKTNV-1" vertex="1">
          <mxGeometry x="55" y="368" width="50" height="30" as="geometry" />
        </mxCell>
        <mxCell id="vcfaOclVS4mGj2MfW7bT-70" value="" style="shape=cylinder3;whiteSpace=wrap;html=1;boundedLbl=1;backgroundOutline=1;size=15;" parent="WIyWlLk6GJQsqaUBKTNV-1" vertex="1">
          <mxGeometry x="790" y="743" width="60" height="80" as="geometry" />
        </mxCell>
        <mxCell id="vcfaOclVS4mGj2MfW7bT-72" style="edgeStyle=orthogonalEdgeStyle;rounded=0;orthogonalLoop=1;jettySize=auto;html=1;exitX=0.5;exitY=1;exitDx=0;exitDy=0;entryX=0.433;entryY=0.033;entryDx=0;entryDy=0;entryPerimeter=0;" parent="WIyWlLk6GJQsqaUBKTNV-1" source="vcfaOclVS4mGj2MfW7bT-71" edge="1" target="QUBie0CDC-Q20IoyBrbW-7">
          <mxGeometry relative="1" as="geometry">
            <mxPoint x="64.5" y="850.0000000000002" as="targetPoint" />
          </mxGeometry>
        </mxCell>
        <mxCell id="vcfaOclVS4mGj2MfW7bT-73" style="edgeStyle=orthogonalEdgeStyle;rounded=0;orthogonalLoop=1;jettySize=auto;html=1;exitX=1;exitY=0.5;exitDx=0;exitDy=0;" parent="WIyWlLk6GJQsqaUBKTNV-1" source="vcfaOclVS4mGj2MfW7bT-71" target="vcfaOclVS4mGj2MfW7bT-74" edge="1">
          <mxGeometry relative="1" as="geometry">
            <mxPoint x="290" y="720.25" as="targetPoint" />
          </mxGeometry>
        </mxCell>
        <mxCell id="QUBie0CDC-Q20IoyBrbW-2" style="edgeStyle=orthogonalEdgeStyle;rounded=0;orthogonalLoop=1;jettySize=auto;html=1;exitX=0;exitY=0.5;exitDx=0;exitDy=0;" edge="1" parent="WIyWlLk6GJQsqaUBKTNV-1" source="vcfaOclVS4mGj2MfW7bT-71">
          <mxGeometry relative="1" as="geometry">
            <mxPoint x="-80" y="620" as="targetPoint" />
          </mxGeometry>
        </mxCell>
        <mxCell id="vcfaOclVS4mGj2MfW7bT-71" value="Student" style="rhombus;whiteSpace=wrap;html=1;" parent="WIyWlLk6GJQsqaUBKTNV-1" vertex="1">
          <mxGeometry x="25" y="680" width="80" height="80" as="geometry" />
        </mxCell>
        <mxCell id="vcfaOclVS4mGj2MfW7bT-77" style="edgeStyle=orthogonalEdgeStyle;rounded=0;orthogonalLoop=1;jettySize=auto;html=1;exitX=0.5;exitY=1;exitDx=0;exitDy=0;" parent="WIyWlLk6GJQsqaUBKTNV-1" source="vcfaOclVS4mGj2MfW7bT-74" edge="1" target="QUBie0CDC-Q20IoyBrbW-8">
          <mxGeometry relative="1" as="geometry">
            <mxPoint x="250" y="860" as="targetPoint" />
          </mxGeometry>
        </mxCell>
        <mxCell id="vcfaOclVS4mGj2MfW7bT-79" style="edgeStyle=orthogonalEdgeStyle;rounded=0;orthogonalLoop=1;jettySize=auto;html=1;exitX=1;exitY=0.5;exitDx=0;exitDy=0;entryX=0;entryY=0.5;entryDx=0;entryDy=0;" parent="WIyWlLk6GJQsqaUBKTNV-1" source="vcfaOclVS4mGj2MfW7bT-74" target="vcfaOclVS4mGj2MfW7bT-80" edge="1">
          <mxGeometry relative="1" as="geometry">
            <mxPoint x="450" y="720.25" as="targetPoint" />
          </mxGeometry>
        </mxCell>
        <mxCell id="QUBie0CDC-Q20IoyBrbW-3" style="edgeStyle=orthogonalEdgeStyle;rounded=0;orthogonalLoop=1;jettySize=auto;html=1;exitX=0.5;exitY=0;exitDx=0;exitDy=0;entryX=0.5;entryY=1;entryDx=0;entryDy=0;" edge="1" parent="WIyWlLk6GJQsqaUBKTNV-1" source="vcfaOclVS4mGj2MfW7bT-74">
          <mxGeometry relative="1" as="geometry">
            <mxPoint x="-80" y="610" as="targetPoint" />
          </mxGeometry>
        </mxCell>
        <mxCell id="vcfaOclVS4mGj2MfW7bT-74" value="&lt;div&gt;Professor&lt;/div&gt;" style="rhombus;whiteSpace=wrap;html=1;" parent="WIyWlLk6GJQsqaUBKTNV-1" vertex="1">
          <mxGeometry x="205" y="680" width="80" height="79.75" as="geometry" />
        </mxCell>
        <mxCell id="vcfaOclVS4mGj2MfW7bT-75" value="True" style="text;html=1;align=center;verticalAlign=middle;resizable=0;points=[];autosize=1;strokeColor=none;fillColor=none;" parent="WIyWlLk6GJQsqaUBKTNV-1" vertex="1">
          <mxGeometry x="55" y="768" width="50" height="30" as="geometry" />
        </mxCell>
        <mxCell id="vcfaOclVS4mGj2MfW7bT-76" value="False" style="text;html=1;align=center;verticalAlign=middle;resizable=0;points=[];autosize=1;strokeColor=none;fillColor=none;" parent="WIyWlLk6GJQsqaUBKTNV-1" vertex="1">
          <mxGeometry x="145" y="688" width="50" height="30" as="geometry" />
        </mxCell>
        <mxCell id="vcfaOclVS4mGj2MfW7bT-78" value="True" style="text;html=1;align=center;verticalAlign=middle;resizable=0;points=[];autosize=1;strokeColor=none;fillColor=none;" parent="WIyWlLk6GJQsqaUBKTNV-1" vertex="1">
          <mxGeometry x="250" y="768" width="50" height="30" as="geometry" />
        </mxCell>
        <mxCell id="vcfaOclVS4mGj2MfW7bT-89" style="edgeStyle=orthogonalEdgeStyle;rounded=0;orthogonalLoop=1;jettySize=auto;html=1;exitX=0.5;exitY=1;exitDx=0;exitDy=0;entryX=0;entryY=0.5;entryDx=0;entryDy=0;" parent="WIyWlLk6GJQsqaUBKTNV-1" source="vcfaOclVS4mGj2MfW7bT-80" target="vcfaOclVS4mGj2MfW7bT-83" edge="1">
          <mxGeometry relative="1" as="geometry" />
        </mxCell>
        <mxCell id="vcfaOclVS4mGj2MfW7bT-90" style="edgeStyle=orthogonalEdgeStyle;rounded=0;orthogonalLoop=1;jettySize=auto;html=1;exitX=0.5;exitY=1;exitDx=0;exitDy=0;entryX=0;entryY=0.5;entryDx=0;entryDy=0;" parent="WIyWlLk6GJQsqaUBKTNV-1" source="vcfaOclVS4mGj2MfW7bT-80" target="vcfaOclVS4mGj2MfW7bT-84" edge="1">
          <mxGeometry relative="1" as="geometry" />
        </mxCell>
        <mxCell id="vcfaOclVS4mGj2MfW7bT-91" style="edgeStyle=orthogonalEdgeStyle;rounded=0;orthogonalLoop=1;jettySize=auto;html=1;exitX=0.5;exitY=1;exitDx=0;exitDy=0;entryX=0;entryY=0.75;entryDx=0;entryDy=0;" parent="WIyWlLk6GJQsqaUBKTNV-1" source="vcfaOclVS4mGj2MfW7bT-80" target="vcfaOclVS4mGj2MfW7bT-85" edge="1">
          <mxGeometry relative="1" as="geometry" />
        </mxCell>
        <mxCell id="vcfaOclVS4mGj2MfW7bT-92" style="edgeStyle=orthogonalEdgeStyle;rounded=0;orthogonalLoop=1;jettySize=auto;html=1;exitX=1;exitY=0.5;exitDx=0;exitDy=0;" parent="WIyWlLk6GJQsqaUBKTNV-1" source="vcfaOclVS4mGj2MfW7bT-80" target="vcfaOclVS4mGj2MfW7bT-86" edge="1">
          <mxGeometry relative="1" as="geometry" />
        </mxCell>
        <mxCell id="vcfaOclVS4mGj2MfW7bT-93" style="edgeStyle=orthogonalEdgeStyle;rounded=0;orthogonalLoop=1;jettySize=auto;html=1;exitX=1;exitY=0.5;exitDx=0;exitDy=0;entryX=0;entryY=0.5;entryDx=0;entryDy=0;" parent="WIyWlLk6GJQsqaUBKTNV-1" source="vcfaOclVS4mGj2MfW7bT-80" target="vcfaOclVS4mGj2MfW7bT-87" edge="1">
          <mxGeometry relative="1" as="geometry" />
        </mxCell>
        <mxCell id="QUBie0CDC-Q20IoyBrbW-4" style="edgeStyle=orthogonalEdgeStyle;rounded=0;orthogonalLoop=1;jettySize=auto;html=1;exitX=0.5;exitY=0;exitDx=0;exitDy=0;entryX=0.5;entryY=1;entryDx=0;entryDy=0;" edge="1" parent="WIyWlLk6GJQsqaUBKTNV-1" source="vcfaOclVS4mGj2MfW7bT-80">
          <mxGeometry relative="1" as="geometry">
            <mxPoint x="-80" y="610" as="targetPoint" />
          </mxGeometry>
        </mxCell>
        <mxCell id="vcfaOclVS4mGj2MfW7bT-80" value="Admin" style="rhombus;whiteSpace=wrap;html=1;" parent="WIyWlLk6GJQsqaUBKTNV-1" vertex="1">
          <mxGeometry x="395" y="679.75" width="80" height="80" as="geometry" />
        </mxCell>
        <mxCell id="vcfaOclVS4mGj2MfW7bT-82" value="False" style="text;html=1;align=center;verticalAlign=middle;resizable=0;points=[];autosize=1;strokeColor=none;fillColor=none;" parent="WIyWlLk6GJQsqaUBKTNV-1" vertex="1">
          <mxGeometry x="320" y="698" width="50" height="30" as="geometry" />
        </mxCell>
        <mxCell id="vcfaOclVS4mGj2MfW7bT-83" value="View by Student" style="rounded=1;whiteSpace=wrap;html=1;" parent="WIyWlLk6GJQsqaUBKTNV-1" vertex="1">
          <mxGeometry x="450" y="798" width="120" height="60" as="geometry" />
        </mxCell>
        <mxCell id="vcfaOclVS4mGj2MfW7bT-84" value="View by Professor" style="rounded=1;whiteSpace=wrap;html=1;" parent="WIyWlLk6GJQsqaUBKTNV-1" vertex="1">
          <mxGeometry x="450" y="870" width="120" height="60" as="geometry" />
        </mxCell>
        <mxCell id="vcfaOclVS4mGj2MfW7bT-85" value="View by Class" style="rounded=1;whiteSpace=wrap;html=1;" parent="WIyWlLk6GJQsqaUBKTNV-1" vertex="1">
          <mxGeometry x="450" y="940" width="120" height="60" as="geometry" />
        </mxCell>
        <mxCell id="vcfaOclVS4mGj2MfW7bT-86" value="Add Assignment" style="shape=parallelogram;perimeter=parallelogramPerimeter;whiteSpace=wrap;html=1;fixedSize=1;" parent="WIyWlLk6GJQsqaUBKTNV-1" vertex="1">
          <mxGeometry x="625" y="798" width="120" height="60" as="geometry" />
        </mxCell>
        <mxCell id="vcfaOclVS4mGj2MfW7bT-87" value="Remove Assignment" style="shape=parallelogram;perimeter=parallelogramPerimeter;whiteSpace=wrap;html=1;fixedSize=1;" parent="WIyWlLk6GJQsqaUBKTNV-1" vertex="1">
          <mxGeometry x="605" y="870" width="140" height="60" as="geometry" />
        </mxCell>
        <mxCell id="vcfaOclVS4mGj2MfW7bT-88" value="Export to CSV" style="shape=parallelogram;perimeter=parallelogramPerimeter;whiteSpace=wrap;html=1;fixedSize=1;" parent="WIyWlLk6GJQsqaUBKTNV-1" vertex="1">
          <mxGeometry x="580" y="940" width="150" height="60" as="geometry" />
        </mxCell>
        <mxCell id="vcfaOclVS4mGj2MfW7bT-94" style="edgeStyle=orthogonalEdgeStyle;rounded=0;orthogonalLoop=1;jettySize=auto;html=1;exitX=1;exitY=0.5;exitDx=0;exitDy=0;entryX=0;entryY=0.5;entryDx=0;entryDy=0;" parent="WIyWlLk6GJQsqaUBKTNV-1" source="vcfaOclVS4mGj2MfW7bT-80" target="vcfaOclVS4mGj2MfW7bT-88" edge="1">
          <mxGeometry relative="1" as="geometry" />
        </mxCell>
        <mxCell id="vcfaOclVS4mGj2MfW7bT-95" style="edgeStyle=orthogonalEdgeStyle;rounded=0;orthogonalLoop=1;jettySize=auto;html=1;entryX=0.5;entryY=0;entryDx=0;entryDy=0;entryPerimeter=0;" parent="WIyWlLk6GJQsqaUBKTNV-1" source="vcfaOclVS4mGj2MfW7bT-80" target="vcfaOclVS4mGj2MfW7bT-70" edge="1">
          <mxGeometry relative="1" as="geometry" />
        </mxCell>
        <mxCell id="vcfaOclVS4mGj2MfW7bT-97" value="" style="endArrow=classic;html=1;rounded=0;entryX=0.5;entryY=1;entryDx=0;entryDy=0;entryPerimeter=0;" parent="WIyWlLk6GJQsqaUBKTNV-1" target="vcfaOclVS4mGj2MfW7bT-70" edge="1">
          <mxGeometry width="50" height="50" relative="1" as="geometry">
            <mxPoint x="820" y="1030" as="sourcePoint" />
            <mxPoint x="830" y="840" as="targetPoint" />
          </mxGeometry>
        </mxCell>
        <mxCell id="vcfaOclVS4mGj2MfW7bT-98" value="" style="endArrow=none;html=1;rounded=0;" parent="WIyWlLk6GJQsqaUBKTNV-1" edge="1">
          <mxGeometry width="50" height="50" relative="1" as="geometry">
            <mxPoint x="430" y="1030" as="sourcePoint" />
            <mxPoint x="820" y="1030" as="targetPoint" />
          </mxGeometry>
        </mxCell>
        <mxCell id="vcfaOclVS4mGj2MfW7bT-99" value="" style="endArrow=none;html=1;rounded=0;" parent="WIyWlLk6GJQsqaUBKTNV-1" edge="1">
          <mxGeometry width="50" height="50" relative="1" as="geometry">
            <mxPoint x="430" y="1030" as="sourcePoint" />
            <mxPoint x="430" y="990" as="targetPoint" />
          </mxGeometry>
        </mxCell>
        <mxCell id="vcfaOclVS4mGj2MfW7bT-100" value="Store" style="text;html=1;align=center;verticalAlign=middle;resizable=0;points=[];autosize=1;strokeColor=none;fillColor=none;" parent="WIyWlLk6GJQsqaUBKTNV-1" vertex="1">
          <mxGeometry x="845" y="818" width="50" height="30" as="geometry" />
        </mxCell>
        <mxCell id="vcfaOclVS4mGj2MfW7bT-101" value="Retrieve" style="text;html=1;align=center;verticalAlign=middle;resizable=0;points=[];autosize=1;strokeColor=none;fillColor=none;" parent="WIyWlLk6GJQsqaUBKTNV-1" vertex="1">
          <mxGeometry x="820" y="713" width="70" height="30" as="geometry" />
        </mxCell>
        <mxCell id="QUBie0CDC-Q20IoyBrbW-11" style="edgeStyle=orthogonalEdgeStyle;rounded=0;orthogonalLoop=1;jettySize=auto;html=1;exitX=1;exitY=0.5;exitDx=0;exitDy=0;entryX=0;entryY=0.5;entryDx=0;entryDy=0;" edge="1" parent="WIyWlLk6GJQsqaUBKTNV-1" source="QUBie0CDC-Q20IoyBrbW-0" target="QUBie0CDC-Q20IoyBrbW-7">
          <mxGeometry relative="1" as="geometry" />
        </mxCell>
        <mxCell id="QUBie0CDC-Q20IoyBrbW-20" style="edgeStyle=orthogonalEdgeStyle;rounded=0;orthogonalLoop=1;jettySize=auto;html=1;exitX=0;exitY=0.5;exitDx=0;exitDy=0;entryX=1;entryY=0.5;entryDx=0;entryDy=0;" edge="1" parent="WIyWlLk6GJQsqaUBKTNV-1" source="QUBie0CDC-Q20IoyBrbW-0" target="QUBie0CDC-Q20IoyBrbW-19">
          <mxGeometry relative="1" as="geometry" />
        </mxCell>
        <mxCell id="QUBie0CDC-Q20IoyBrbW-0" value="Assignments" style="rounded=1;whiteSpace=wrap;html=1;" vertex="1" parent="WIyWlLk6GJQsqaUBKTNV-1">
          <mxGeometry x="-130" y="830" width="120" height="60" as="geometry" />
        </mxCell>
        <mxCell id="QUBie0CDC-Q20IoyBrbW-10" style="edgeStyle=orthogonalEdgeStyle;rounded=0;orthogonalLoop=1;jettySize=auto;html=1;exitX=0.5;exitY=0;exitDx=0;exitDy=0;entryX=0;entryY=0.5;entryDx=0;entryDy=0;" edge="1" parent="WIyWlLk6GJQsqaUBKTNV-1" source="QUBie0CDC-Q20IoyBrbW-5" target="vcfaOclVS4mGj2MfW7bT-0">
          <mxGeometry relative="1" as="geometry" />
        </mxCell>
        <mxCell id="QUBie0CDC-Q20IoyBrbW-5" value="Logout" style="shape=parallelogram;perimeter=parallelogramPerimeter;whiteSpace=wrap;html=1;fixedSize=1;" vertex="1" parent="WIyWlLk6GJQsqaUBKTNV-1">
          <mxGeometry x="-130" y="550" width="120" height="60" as="geometry" />
        </mxCell>
        <mxCell id="QUBie0CDC-Q20IoyBrbW-15" style="edgeStyle=orthogonalEdgeStyle;rounded=0;orthogonalLoop=1;jettySize=auto;html=1;exitX=0;exitY=0.5;exitDx=0;exitDy=0;entryX=1;entryY=0.5;entryDx=0;entryDy=0;" edge="1" parent="WIyWlLk6GJQsqaUBKTNV-1" source="QUBie0CDC-Q20IoyBrbW-6" target="QUBie0CDC-Q20IoyBrbW-13">
          <mxGeometry relative="1" as="geometry" />
        </mxCell>
        <mxCell id="QUBie0CDC-Q20IoyBrbW-6" value="Profile" style="rounded=1;whiteSpace=wrap;html=1;" vertex="1" parent="WIyWlLk6GJQsqaUBKTNV-1">
          <mxGeometry x="-130" y="920" width="120" height="60" as="geometry" />
        </mxCell>
        <mxCell id="QUBie0CDC-Q20IoyBrbW-7" value="Student Dashboard" style="rounded=1;whiteSpace=wrap;html=1;" vertex="1" parent="WIyWlLk6GJQsqaUBKTNV-1">
          <mxGeometry x="20" y="870" width="120" height="60" as="geometry" />
        </mxCell>
        <mxCell id="QUBie0CDC-Q20IoyBrbW-14" style="edgeStyle=orthogonalEdgeStyle;rounded=0;orthogonalLoop=1;jettySize=auto;html=1;exitX=0.5;exitY=1;exitDx=0;exitDy=0;" edge="1" parent="WIyWlLk6GJQsqaUBKTNV-1" source="QUBie0CDC-Q20IoyBrbW-8" target="QUBie0CDC-Q20IoyBrbW-6">
          <mxGeometry relative="1" as="geometry" />
        </mxCell>
        <mxCell id="QUBie0CDC-Q20IoyBrbW-17" style="edgeStyle=orthogonalEdgeStyle;rounded=0;orthogonalLoop=1;jettySize=auto;html=1;exitX=1;exitY=0.5;exitDx=0;exitDy=0;entryX=1;entryY=0.5;entryDx=0;entryDy=0;" edge="1" parent="WIyWlLk6GJQsqaUBKTNV-1" source="QUBie0CDC-Q20IoyBrbW-8" target="QUBie0CDC-Q20IoyBrbW-16">
          <mxGeometry relative="1" as="geometry" />
        </mxCell>
        <mxCell id="QUBie0CDC-Q20IoyBrbW-8" value="Professor Dashboard" style="rounded=1;whiteSpace=wrap;html=1;" vertex="1" parent="WIyWlLk6GJQsqaUBKTNV-1">
          <mxGeometry x="190" y="870" width="120" height="60" as="geometry" />
        </mxCell>
        <mxCell id="QUBie0CDC-Q20IoyBrbW-12" style="edgeStyle=orthogonalEdgeStyle;rounded=0;orthogonalLoop=1;jettySize=auto;html=1;exitX=1;exitY=0.5;exitDx=0;exitDy=0;entryX=0;entryY=0.5;entryDx=0;entryDy=0;" edge="1" parent="WIyWlLk6GJQsqaUBKTNV-1" source="QUBie0CDC-Q20IoyBrbW-6" target="QUBie0CDC-Q20IoyBrbW-7">
          <mxGeometry relative="1" as="geometry" />
        </mxCell>
        <mxCell id="QUBie0CDC-Q20IoyBrbW-31" style="edgeStyle=orthogonalEdgeStyle;rounded=0;orthogonalLoop=1;jettySize=auto;html=1;exitX=0;exitY=0.5;exitDx=0;exitDy=0;" edge="1" parent="WIyWlLk6GJQsqaUBKTNV-1" source="QUBie0CDC-Q20IoyBrbW-13">
          <mxGeometry relative="1" as="geometry">
            <mxPoint x="-560.0000000000002" y="1140" as="targetPoint" />
          </mxGeometry>
        </mxCell>
        <mxCell id="QUBie0CDC-Q20IoyBrbW-13" value="Edit Info" style="shape=parallelogram;perimeter=parallelogramPerimeter;whiteSpace=wrap;html=1;fixedSize=1;" vertex="1" parent="WIyWlLk6GJQsqaUBKTNV-1">
          <mxGeometry x="-290" y="930" width="120" height="60" as="geometry" />
        </mxCell>
        <mxCell id="QUBie0CDC-Q20IoyBrbW-23" style="edgeStyle=orthogonalEdgeStyle;rounded=0;orthogonalLoop=1;jettySize=auto;html=1;exitX=0;exitY=0.5;exitDx=0;exitDy=0;entryX=1;entryY=0.5;entryDx=0;entryDy=0;" edge="1" parent="WIyWlLk6GJQsqaUBKTNV-1" source="QUBie0CDC-Q20IoyBrbW-16" target="QUBie0CDC-Q20IoyBrbW-22">
          <mxGeometry relative="1" as="geometry" />
        </mxCell>
        <mxCell id="QUBie0CDC-Q20IoyBrbW-16" value="&lt;div&gt;Students&lt;/div&gt;&lt;div&gt;&lt;br&gt;&lt;/div&gt;" style="rounded=1;whiteSpace=wrap;html=1;" vertex="1" parent="WIyWlLk6GJQsqaUBKTNV-1">
          <mxGeometry x="205" y="1020" width="120" height="60" as="geometry" />
        </mxCell>
        <mxCell id="QUBie0CDC-Q20IoyBrbW-32" style="edgeStyle=orthogonalEdgeStyle;rounded=0;orthogonalLoop=1;jettySize=auto;html=1;exitX=0;exitY=0.75;exitDx=0;exitDy=0;" edge="1" parent="WIyWlLk6GJQsqaUBKTNV-1" source="QUBie0CDC-Q20IoyBrbW-18">
          <mxGeometry relative="1" as="geometry">
            <mxPoint x="-560.0000000000002" y="1000" as="targetPoint" />
          </mxGeometry>
        </mxCell>
        <mxCell id="QUBie0CDC-Q20IoyBrbW-18" value="View" style="shape=parallelogram;perimeter=parallelogramPerimeter;whiteSpace=wrap;html=1;fixedSize=1;" vertex="1" parent="WIyWlLk6GJQsqaUBKTNV-1">
          <mxGeometry x="-400" y="840" width="120" height="60" as="geometry" />
        </mxCell>
        <mxCell id="QUBie0CDC-Q20IoyBrbW-21" style="edgeStyle=orthogonalEdgeStyle;rounded=0;orthogonalLoop=1;jettySize=auto;html=1;exitX=0;exitY=0.5;exitDx=0;exitDy=0;entryX=1;entryY=0.5;entryDx=0;entryDy=0;" edge="1" parent="WIyWlLk6GJQsqaUBKTNV-1" source="QUBie0CDC-Q20IoyBrbW-19" target="QUBie0CDC-Q20IoyBrbW-18">
          <mxGeometry relative="1" as="geometry" />
        </mxCell>
        <mxCell id="QUBie0CDC-Q20IoyBrbW-19" value="Mark Complete" style="shape=parallelogram;perimeter=parallelogramPerimeter;whiteSpace=wrap;html=1;fixedSize=1;" vertex="1" parent="WIyWlLk6GJQsqaUBKTNV-1">
          <mxGeometry x="-280" y="840" width="120" height="60" as="geometry" />
        </mxCell>
        <mxCell id="QUBie0CDC-Q20IoyBrbW-25" style="edgeStyle=orthogonalEdgeStyle;rounded=0;orthogonalLoop=1;jettySize=auto;html=1;exitX=0;exitY=0.5;exitDx=0;exitDy=0;entryX=1;entryY=0.5;entryDx=0;entryDy=0;" edge="1" parent="WIyWlLk6GJQsqaUBKTNV-1" source="QUBie0CDC-Q20IoyBrbW-22" target="QUBie0CDC-Q20IoyBrbW-24">
          <mxGeometry relative="1" as="geometry" />
        </mxCell>
        <mxCell id="QUBie0CDC-Q20IoyBrbW-22" value="Classes" style="rounded=1;whiteSpace=wrap;html=1;" vertex="1" parent="WIyWlLk6GJQsqaUBKTNV-1">
          <mxGeometry x="55" y="1020" width="120" height="60" as="geometry" />
        </mxCell>
        <mxCell id="QUBie0CDC-Q20IoyBrbW-24" value="Assignments" style="rounded=1;whiteSpace=wrap;html=1;" vertex="1" parent="WIyWlLk6GJQsqaUBKTNV-1">
          <mxGeometry x="-95" y="1030" width="120" height="60" as="geometry" />
        </mxCell>
        <mxCell id="QUBie0CDC-Q20IoyBrbW-28" style="edgeStyle=orthogonalEdgeStyle;rounded=0;orthogonalLoop=1;jettySize=auto;html=1;exitX=0.5;exitY=0;exitDx=0;exitDy=0;" edge="1" parent="WIyWlLk6GJQsqaUBKTNV-1" source="QUBie0CDC-Q20IoyBrbW-26" target="QUBie0CDC-Q20IoyBrbW-22">
          <mxGeometry relative="1" as="geometry" />
        </mxCell>
        <mxCell id="QUBie0CDC-Q20IoyBrbW-29" style="edgeStyle=orthogonalEdgeStyle;rounded=0;orthogonalLoop=1;jettySize=auto;html=1;exitX=1;exitY=0.5;exitDx=0;exitDy=0;entryX=0.5;entryY=1;entryDx=0;entryDy=0;" edge="1" parent="WIyWlLk6GJQsqaUBKTNV-1" source="QUBie0CDC-Q20IoyBrbW-26" target="QUBie0CDC-Q20IoyBrbW-16">
          <mxGeometry relative="1" as="geometry" />
        </mxCell>
        <mxCell id="QUBie0CDC-Q20IoyBrbW-30" style="edgeStyle=orthogonalEdgeStyle;rounded=0;orthogonalLoop=1;jettySize=auto;html=1;exitX=0;exitY=0.5;exitDx=0;exitDy=0;" edge="1" parent="WIyWlLk6GJQsqaUBKTNV-1" source="QUBie0CDC-Q20IoyBrbW-26">
          <mxGeometry relative="1" as="geometry">
            <mxPoint x="-560.0000000000002" y="1139.6923076923076" as="targetPoint" />
          </mxGeometry>
        </mxCell>
        <mxCell id="QUBie0CDC-Q20IoyBrbW-26" value="Add/Edit/Remove" style="shape=parallelogram;perimeter=parallelogramPerimeter;whiteSpace=wrap;html=1;fixedSize=1;" vertex="1" parent="WIyWlLk6GJQsqaUBKTNV-1">
          <mxGeometry x="55" y="1109" width="120" height="60" as="geometry" />
        </mxCell>
        <mxCell id="QUBie0CDC-Q20IoyBrbW-27" style="edgeStyle=orthogonalEdgeStyle;rounded=0;orthogonalLoop=1;jettySize=auto;html=1;exitX=0;exitY=0.5;exitDx=0;exitDy=0;entryX=0.396;entryY=1.046;entryDx=0;entryDy=0;entryPerimeter=0;" edge="1" parent="WIyWlLk6GJQsqaUBKTNV-1" source="QUBie0CDC-Q20IoyBrbW-26" target="QUBie0CDC-Q20IoyBrbW-24">
          <mxGeometry relative="1" as="geometry" />
        </mxCell>
        <mxCell id="QUBie0CDC-Q20IoyBrbW-33" value="" style="shape=cylinder3;whiteSpace=wrap;html=1;boundedLbl=1;backgroundOutline=1;size=15;" vertex="1" parent="WIyWlLk6GJQsqaUBKTNV-1">
          <mxGeometry x="-590" y="980" width="60" height="80" as="geometry" />
        </mxCell>
        <mxCell id="QUBie0CDC-Q20IoyBrbW-34" value="&lt;div&gt;Store/Retrieve&lt;/div&gt;&lt;div&gt;&lt;br&gt;&lt;/div&gt;" style="text;html=1;align=center;verticalAlign=middle;resizable=0;points=[];autosize=1;strokeColor=none;fillColor=none;" vertex="1" parent="WIyWlLk6GJQsqaUBKTNV-1">
          <mxGeometry x="-650" y="923" width="100" height="40" as="geometry" />
        </mxCell>
      </root>
    </mxGraphModel>
  </diagram>
</mxfile>
